# Blender v2.79 (sub 0) OBJ File: 'person.blend'
# www.blender.org
mtllib person.mtl
o Cube
v -0.398815 -0.047980 -0.264082
v -0.398815 -0.047980 0.264082
v -0.926979 -0.047980 0.264082
v -0.926979 -0.047980 -0.264082
v -0.398815 1.952020 -0.264082
v -0.398815 1.952020 0.264082
v -0.926979 1.952020 0.264082
v -0.926979 1.952020 -0.264082
v -0.398815 5.041276 -0.264082
v -0.398815 5.041276 0.264082
v -0.926979 5.041276 0.264082
v -0.926979 5.041276 -0.264082
v -0.398815 4.586974 -0.264082
v -0.398815 4.586974 0.264082
v -0.926979 4.586974 0.264082
v -0.926979 4.586974 -0.264082
v -0.398815 4.059502 0.264082
v -0.926979 4.059502 -0.264082
v -0.398815 4.059502 -0.264082
v -0.926979 4.059502 0.264082
v -3.160258 4.586974 0.264081
v -3.160258 4.586974 -0.264082
v -3.160258 4.059502 -0.264082
v -3.160258 4.059502 0.264081
v -0.398815 5.664719 -0.264082
v -0.398815 5.664719 0.264082
v -0.522803 5.943029 -0.428283
v -0.522803 5.943029 0.428283
v -0.522803 6.977005 -0.428283
v -0.522803 6.977005 0.428283
v -0.452141 7.241511 -0.312509
v -0.452141 7.241511 0.312509
v 0.398815 -0.047980 -0.264082
v 0.398815 -0.047980 0.264082
v 0.926979 -0.047980 0.264082
v 0.926979 -0.047980 -0.264082
v 0.398815 1.952020 -0.264082
v 0.398815 1.952020 0.264082
v 0.926979 1.952020 0.264082
v 0.926979 1.952020 -0.264082
v 0.398815 5.041276 -0.264082
v 0.398815 5.041276 0.264082
v 0.926979 5.041276 0.264082
v 0.926979 5.041276 -0.264082
v 0.000000 1.952020 -0.264082
v 0.000000 1.952020 0.264082
v 0.000000 5.041276 -0.264082
v 0.000000 5.041276 0.264082
v 0.398815 4.586974 -0.264082
v 0.398815 4.586974 0.264082
v 0.926979 4.586974 0.264082
v 0.926979 4.586974 -0.264082
v 0.000000 4.586974 -0.264082
v 0.000000 4.586974 0.264082
v 0.398815 4.059502 0.264082
v 0.926979 4.059502 -0.264082
v 0.000000 4.059502 0.264082
v 0.398815 4.059502 -0.264082
v 0.926979 4.059502 0.264082
v 0.000000 4.059502 -0.264082
v 3.160258 4.586974 0.264081
v 3.160258 4.586974 -0.264082
v 3.160258 4.059502 -0.264082
v 3.160258 4.059502 0.264081
v 0.398815 5.664719 -0.264082
v 0.398815 5.664719 0.264082
v 0.000000 5.664719 -0.264082
v 0.000000 5.664719 0.264082
v 0.522803 5.943029 -0.428283
v 0.522803 5.943029 0.428283
v 0.000000 5.943029 -0.428283
v 0.000000 5.943029 0.428283
v 0.522803 6.977005 -0.428283
v 0.522803 6.977005 0.428283
v 0.000000 6.977005 -0.428283
v 0.000000 6.977005 0.428283
v 0.452141 7.241511 -0.312509
v 0.452141 7.241511 0.312509
v 0.000000 7.241511 -0.312509
v 0.000000 7.241511 0.312509
vn 0.0000 -1.0000 0.0000
vn 1.0000 -0.0000 0.0000
vn -0.0000 -0.0000 1.0000
vn -1.0000 -0.0000 -0.0000
vn 0.0000 0.0000 -1.0000
vn 0.0000 1.0000 0.0000
vn 0.0000 -0.5081 -0.8613
vn 0.0000 -0.5081 0.8613
vn -0.9135 -0.4069 -0.0000
vn 0.0000 0.4010 -0.9161
vn 0.0000 0.4010 0.9161
vn -0.9661 0.2581 -0.0000
vn 0.9135 -0.4069 -0.0000
vn 0.9661 0.2581 -0.0000
usemtl Material
s off
f 1//1 2//1 3//1 4//1
f 6//1 5//1 45//1 46//1
f 1//2 5//2 6//2 2//2
f 2//3 6//3 7//3 3//3
f 3//4 7//4 8//4 4//4
f 5//5 1//5 4//5 8//5
f 9//6 12//6 11//6 10//6
f 16//4 15//4 11//4 12//4
f 13//5 16//5 12//5 9//5
f 15//3 14//3 10//3 11//3
f 17//3 6//3 46//3 57//3
f 13//5 9//5 47//5 53//5
f 10//3 48//3 68//3 26//3
f 19//5 13//5 53//5 60//5
f 10//3 14//3 54//3 48//3
f 20//3 17//3 14//3 15//3
f 19//5 18//5 16//5 13//5
f 20//3 15//3 21//3 24//3
f 8//4 7//4 20//4 18//4
f 5//5 8//5 18//5 19//5
f 7//3 6//3 17//3 20//3
f 5//5 19//5 60//5 45//5
f 14//3 17//3 57//3 54//3
f 23//4 24//4 21//4 22//4
f 16//5 18//5 23//5 22//5
f 15//6 16//6 22//6 21//6
f 18//1 20//1 24//1 23//1
f 67//7 25//7 27//7 71//7
f 47//5 9//5 25//5 67//5
f 9//4 10//4 26//4 25//4
f 28//3 72//3 76//3 30//3
f 26//8 68//8 72//8 28//8
f 25//9 26//9 28//9 27//9
f 75//10 29//10 31//10 79//10
f 27//4 28//4 30//4 29//4
f 71//5 27//5 29//5 75//5
f 31//6 32//6 80//6 79//6
f 30//11 76//11 80//11 32//11
f 29//12 30//12 32//12 31//12
f 33//1 36//1 35//1 34//1
f 38//1 46//1 45//1 37//1
f 33//4 34//4 38//4 37//4
f 34//3 35//3 39//3 38//3
f 35//2 36//2 40//2 39//2
f 37//5 40//5 36//5 33//5
f 41//6 42//6 43//6 44//6
f 52//2 44//2 43//2 51//2
f 49//5 41//5 44//5 52//5
f 51//3 43//3 42//3 50//3
f 54//4 48//4 47//4 53//4
f 55//3 57//3 46//3 38//3
f 49//5 53//5 47//5 41//5
f 42//3 66//3 68//3 48//3
f 58//5 60//5 53//5 49//5
f 42//3 48//3 54//3 50//3
f 57//4 54//4 53//4 60//4
f 59//3 51//3 50//3 55//3
f 58//5 49//5 52//5 56//5
f 59//3 64//3 61//3 51//3
f 40//2 56//2 59//2 39//2
f 37//5 58//5 56//5 40//5
f 39//3 59//3 55//3 38//3
f 46//4 57//4 60//4 45//4
f 37//5 45//5 60//5 58//5
f 50//3 54//3 57//3 55//3
f 63//2 62//2 61//2 64//2
f 52//5 62//5 63//5 56//5
f 51//6 61//6 62//6 52//6
f 56//1 63//1 64//1 59//1
f 67//7 71//7 69//7 65//7
f 47//5 67//5 65//5 41//5
f 41//2 65//2 66//2 42//2
f 48//4 68//4 67//4 47//4
f 70//3 74//3 76//3 72//3
f 68//4 72//4 71//4 67//4
f 66//8 70//8 72//8 68//8
f 65//13 69//13 70//13 66//13
f 75//10 79//10 77//10 73//10
f 69//2 73//2 74//2 70//2
f 71//5 75//5 73//5 69//5
f 72//4 76//4 75//4 71//4
f 77//6 79//6 80//6 78//6
f 76//4 80//4 79//4 75//4
f 74//11 78//11 80//11 76//11
f 73//14 77//14 78//14 74//14
